<?xml version="1.0" encoding="UTF-8" standalone="no"?>
<!DOCTYPE svg PUBLIC "-//W3C//DTD SVG 1.1//EN"
 "http://www.w3.org/Graphics/SVG/1.1/DTD/svg11.dtd">
<!-- Generated by graphviz version 2.43.0 (0)
 -->
<!-- Title: exampleelection Pages: 1 -->
<svg width="992pt" height="171pt"
 viewBox="0.00 0.00 992.00 171.00" xmlns="http://www.w3.org/2000/svg" xmlns:xlink="http://www.w3.org/1999/xlink">
<g id="graph0" class="graph" transform="scale(1 1) rotate(0) translate(4 167)">
<title>exampleelection</title>
<polygon fill="white" stroke="transparent" points="-4,4 -4,-167 988,-167 988,4 -4,4"/>
<g id="clust1" class="cluster">
<title>cluster0configure</title>
<polygon fill="none" stroke="black" points="8,-8 8,-155 802,-155 802,-8 8,-8"/>
<text text-anchor="middle" x="405" y="-139.8" font-family="Times-Roman" font-size="14.00">Configure election</text>
</g>
<g id="clust3" class="cluster">
<title>cluster2encryptballots</title>
<polygon fill="none" stroke="black" points="810,-80 810,-155 976,-155 976,-80 810,-80"/>
<text text-anchor="middle" x="893" y="-139.8" font-family="Times-Roman" font-size="14.00">Encrypt ballots</text>
</g>
<!-- manifest -->
<g id="node1" class="node">
<title>manifest</title>
<ellipse fill="none" stroke="black" cx="684" cy="-106" rx="110.48" ry="18"/>
<text text-anchor="middle" x="684" y="-102.3" font-family="Times-Roman" font-size="14.00">election&#45;manifest.json</text>
</g>
<!-- ElectionBuilder -->
<g id="node2" class="node">
<title>ElectionBuilder</title>
<ellipse fill="none" stroke="black" cx="684" cy="-34" rx="78.79" ry="18"/>
<text text-anchor="middle" x="684" y="-30.3" font-family="Times-Roman" font-size="14.00">ElectionBuilder</text>
</g>
<!-- manifest&#45;&gt;ElectionBuilder -->
<g id="edge1" class="edge">
<title>manifest&#45;&gt;ElectionBuilder</title>
<path fill="none" stroke="black" d="M684,-87.7C684,-79.98 684,-70.71 684,-62.11"/>
<polygon fill="black" stroke="black" points="687.5,-62.1 684,-52.1 680.5,-62.1 687.5,-62.1"/>
</g>
<!-- CiphertextElectionContext -->
<g id="node3" class="node">
<title>CiphertextElectionContext</title>
<ellipse fill="none" stroke="black" cx="427" cy="-106" rx="128.88" ry="18"/>
<text text-anchor="middle" x="427" y="-102.3" font-family="Times-Roman" font-size="14.00">CiphertextElectionContext</text>
</g>
<!-- InternalElectionDescription -->
<g id="node4" class="node">
<title>InternalElectionDescription</title>
<ellipse fill="none" stroke="black" cx="148" cy="-106" rx="131.88" ry="18"/>
<text text-anchor="middle" x="148" y="-102.3" font-family="Times-Roman" font-size="14.00">InternalElectionDescription</text>
</g>
<!-- PlaintextBallot -->
<g id="node5" class="node">
<title>PlaintextBallot</title>
<ellipse fill="none" stroke="black" cx="893" cy="-106" rx="75.29" ry="18"/>
<text text-anchor="middle" x="893" y="-102.3" font-family="Times-Roman" font-size="14.00">PlaintextBallot</text>
</g>
</g>
</svg>
